# This file uses meters as units for non-parametric coordinates.

mtllib SmallSignAds.mtl
g default
v -16.577812 3.535423 0.208261
v 16.577812 3.535423 0.208261
v -16.577812 17.112856 0.208261
v 16.577812 17.112856 0.208261
v -16.577812 17.112856 -0.208261
v 16.577812 17.112856 -0.208261
v -16.577812 3.535423 -0.208261
v 16.577812 3.535423 -0.208261
v -16.119019 0.000000 -0.456190
v -16.452972 0.000000 -0.790145
v -16.909164 0.000000 -0.912363
v -17.365356 0.000000 -0.790145
v -17.699310 0.000000 -0.456190
v -17.821545 0.000000 0.000000
v -17.699310 0.000000 0.456190
v -17.365356 0.000000 0.790145
v -16.909164 0.000000 0.912381
v -16.452972 0.000000 0.790145
v -16.119019 0.000000 0.456190
v -15.996784 0.000000 0.000000
v -16.119019 18.188660 -0.456190
v -16.452972 18.188660 -0.790145
v -16.909166 18.188660 -0.912363
v -17.365356 18.188662 -0.790145
v -17.699310 18.188660 -0.456190
v -17.821547 18.188660 0.000000
v -17.699310 18.188660 0.456190
v -17.365356 18.188662 0.790145
v -16.909166 18.188660 0.912381
v -16.452972 18.188660 0.790145
v -16.119019 18.188660 0.456190
v -15.996784 18.188660 0.000000
v -16.909164 0.000000 0.000000
v -15.727817 19.008858 -0.456190
v -15.727814 19.342812 -0.790145
v -15.727817 19.799006 -0.912363
v -15.727814 20.255188 -0.790145
v -15.727816 20.589146 -0.456190
v -15.727817 20.711386 0.000000
v -15.727816 20.589146 0.456190
v -15.727814 20.255188 0.790145
v -15.727817 19.799006 0.912381
v -15.727814 19.342812 0.790145
v -15.727817 19.008858 0.456190
v -15.727814 18.886618 0.000000
v -16.018021 18.770975 -0.453197
v -16.261162 18.942186 -0.784968
v -16.593304 19.176062 -0.906402
v -16.925442 19.409935 -0.784968
v -17.168585 19.581156 -0.453197
v -17.257582 19.643822 0.000000
v -17.168585 19.581156 0.453215
v -16.925442 19.409935 0.784986
v -16.593304 19.176062 0.906402
v -16.261162 18.942186 0.784986
v -16.018021 18.770975 0.453215
v -15.929024 18.708309 0.000000
v 16.119024 0.000000 -0.456190
v 16.452974 0.000000 -0.790145
v 16.909163 0.000000 -0.912363
v 17.365358 0.000000 -0.790145
v 17.699312 0.000000 -0.456190
v 17.821550 0.000000 0.000000
v 17.699312 0.000000 0.456190
v 17.365358 0.000000 0.790145
v 16.909163 0.000000 0.912381
v 16.452974 0.000000 0.790145
v 16.119024 0.000000 0.456190
v 15.996786 0.000000 0.000000
v 16.119024 18.188660 -0.456190
v 16.452974 18.188660 -0.790145
v 16.909170 18.188660 -0.912363
v 17.365358 18.188662 -0.790145
v 17.699312 18.188660 -0.456190
v 17.821550 18.188660 0.000000
v 17.699312 18.188660 0.456190
v 17.365358 18.188662 0.790145
v 16.909170 18.188660 0.912381
v 16.452974 18.188660 0.790145
v 16.119024 18.188660 0.456190
v 15.996786 18.188660 0.000000
v 16.909163 0.000000 0.000000
v 15.727823 19.008858 -0.456190
v 15.727812 19.342812 -0.790145
v 15.727823 19.799006 -0.912363
v 15.727812 20.255188 -0.790145
v 15.727823 20.589146 -0.456190
v 15.727823 20.711386 0.000000
v 15.727823 20.589146 0.456190
v 15.727812 20.255188 0.790145
v 15.727823 19.799006 0.912381
v 15.727812 19.342812 0.790145
v 15.727823 19.008858 0.456190
v 15.727812 18.886618 0.000000
v 16.018019 18.770975 -0.453197
v 16.261164 18.942186 -0.784968
v 16.593306 19.176062 -0.906402
v 16.925447 19.409935 -0.784968
v 17.168592 19.581156 -0.453197
v 17.257586 19.643822 0.000000
v 17.168592 19.581156 0.453215
v 16.925447 19.409935 0.784986
v 16.593306 19.176062 0.906402
v 16.261164 18.942186 0.784986
v 16.018019 18.770975 0.453215
v 15.929026 18.708309 0.000000
vt 0.375000 0.000000
vt 0.625000 0.000000
vt 0.375000 0.250000
vt 0.625000 0.250000
vt 0.375000 0.500000
vt 0.625000 0.500000
vt 0.375000 0.750000
vt 0.625000 0.750000
vt 0.375000 1.000000
vt 0.625000 1.000000
vt 0.875000 0.000000
vt 0.875000 0.250000
vt 0.125000 0.000000
vt 0.125000 0.250000
vt 0.375000 0.312500
vt 0.395833 0.312500
vt 0.395833 0.688440
vt 0.375000 0.688440
vt 0.416667 0.312500
vt 0.416667 0.688440
vt 0.437500 0.312500
vt 0.437500 0.688440
vt 0.458333 0.312500
vt 0.458333 0.688440
vt 0.479167 0.312500
vt 0.479167 0.688440
vt 0.500000 0.312500
vt 0.500000 0.688440
vt 0.520833 0.312500
vt 0.520833 0.688440
vt 0.541667 0.312500
vt 0.541667 0.688440
vt 0.562500 0.312500
vt 0.562500 0.688440
vt 0.583333 0.312500
vt 0.583333 0.688440
vt 0.604167 0.312500
vt 0.604167 0.688440
vt 0.625000 0.312500
vt 0.625000 0.688440
vt 0.578125 0.020934
vt 0.635316 0.078125
vt 0.500000 0.150000
vt 0.500000 0.000000
vt 0.421875 0.020934
vt 0.364684 0.078125
vt 0.343750 0.156250
vt 0.364684 0.234375
vt 0.421875 0.291566
vt 0.500000 0.312500
vt 0.578125 0.291566
vt 0.635316 0.234375
vt 0.656250 0.156250
vt 0.635316 0.921875
vt 0.578125 0.979066
vt 0.578125 0.979066
vt 0.635316 0.921875
vt 0.500000 1.000000
vt 0.500000 1.000000
vt 0.421875 0.979066
vt 0.421875 0.979066
vt 0.364684 0.921875
vt 0.364684 0.921875
vt 0.343750 0.843750
vt 0.343750 0.843750
vt 0.364684 0.765625
vt 0.364684 0.765625
vt 0.421875 0.708434
vt 0.421875 0.708434
vt 0.500000 0.687500
vt 0.500000 0.687500
vt 0.578125 0.708434
vt 0.578125 0.708434
vt 0.635316 0.765625
vt 0.635316 0.765625
vt 0.656250 0.843750
vt 0.656250 0.843750
vt 0.635316 0.921875
vt 0.578125 0.979066
vt 0.500000 1.000000
vt 0.421875 0.979066
vt 0.364684 0.921875
vt 0.343750 0.843750
vt 0.364684 0.765625
vt 0.421875 0.708434
vt 0.500000 0.687500
vt 0.578125 0.708434
vt 0.635316 0.765625
vt 0.656250 0.843750
vt 0.625000 0.312500
vt 0.625000 0.688440
vt 0.604167 0.688440
vt 0.604167 0.312500
vt 0.583333 0.688440
vt 0.583333 0.312500
vt 0.562500 0.688440
vt 0.562500 0.312500
vt 0.541667 0.688440
vt 0.541667 0.312500
vt 0.520833 0.688440
vt 0.520833 0.312500
vt 0.500000 0.688440
vt 0.500000 0.312500
vt 0.479167 0.688440
vt 0.479167 0.312500
vt 0.458333 0.688440
vt 0.458333 0.312500
vt 0.437500 0.688440
vt 0.437500 0.312500
vt 0.416667 0.688440
vt 0.416667 0.312500
vt 0.395833 0.688440
vt 0.395833 0.312500
vt 0.375000 0.688440
vt 0.375000 0.312500
vt 0.421875 0.020934
vt 0.500000 0.150000
vt 0.364684 0.078125
vt 0.500000 0.000000
vt 0.578125 0.020934
vt 0.635316 0.078125
vt 0.656250 0.156250
vt 0.635316 0.234375
vt 0.578125 0.291566
vt 0.500000 0.312500
vt 0.421875 0.291566
vt 0.364684 0.234375
vt 0.343750 0.156250
vt 0.364684 0.921875
vt 0.364684 0.921875
vt 0.421875 0.979066
vt 0.421875 0.979066
vt 0.500000 1.000000
vt 0.500000 1.000000
vt 0.578125 0.979066
vt 0.578125 0.979066
vt 0.635316 0.921875
vt 0.635316 0.921875
vt 0.656250 0.843750
vt 0.656250 0.843750
vt 0.635316 0.765625
vt 0.635316 0.765625
vt 0.578125 0.708434
vt 0.578125 0.708434
vt 0.500000 0.687500
vt 0.500000 0.687500
vt 0.421875 0.708434
vt 0.421875 0.708434
vt 0.364684 0.765625
vt 0.364684 0.765625
vt 0.343750 0.843750
vt 0.343750 0.843750
vt 0.364684 0.921875
vt 0.421875 0.979066
vt 0.500000 1.000000
vt 0.578125 0.979066
vt 0.635316 0.921875
vt 0.656250 0.843750
vt 0.635316 0.765625
vt 0.578125 0.708434
vt 0.500000 0.687500
vt 0.421875 0.708434
vt 0.364684 0.765625
vt 0.343750 0.843750
vn 0.000000 0.000000 1.000000
vn 0.000000 0.000000 1.000000
vn 0.000000 0.000000 1.000000
vn 0.000000 0.000000 1.000000
vn 0.000000 1.000000 0.000000
vn 0.000000 1.000000 0.000000
vn 0.000000 1.000000 0.000000
vn 0.000000 1.000000 0.000000
vn 0.000000 0.000000 -1.000000
vn 0.000000 0.000000 -1.000000
vn 0.000000 0.000000 -1.000000
vn 0.000000 0.000000 -1.000000
vn 0.000000 -1.000000 0.000000
vn 0.000000 -1.000000 0.000000
vn 0.000000 -1.000000 0.000000
vn 0.000000 -1.000000 0.000000
vn 1.000000 0.000000 0.000000
vn 1.000000 0.000000 0.000000
vn 1.000000 0.000000 0.000000
vn 1.000000 0.000000 0.000000
vn -1.000000 0.000000 0.000000
vn -1.000000 0.000000 0.000000
vn -1.000000 0.000000 0.000000
vn -1.000000 0.000000 0.000000
vn 0.707108 0.000000 -0.707106
vn 0.707108 0.000000 -0.707106
vn 0.707108 0.000000 -0.707106
vn 0.707108 0.000000 -0.707106
vn 0.258783 0.000000 -0.965936
vn 0.258783 0.000000 -0.965936
vn 0.258783 0.000000 -0.965936
vn 0.258783 0.000000 -0.965936
vn -0.258784 0.000000 -0.965935
vn -0.258784 0.000000 -0.965935
vn -0.258784 0.000000 -0.965935
vn -0.258784 0.000000 -0.965935
vn -0.707108 0.000000 -0.707106
vn -0.707108 0.000000 -0.707106
vn -0.707108 0.000000 -0.707106
vn -0.707108 0.000000 -0.707106
vn -0.965926 -0.000000 -0.258818
vn -0.965926 -0.000000 -0.258818
vn -0.965926 -0.000000 -0.258818
vn -0.965926 -0.000000 -0.258818
vn -0.965926 -0.000000 0.258818
vn -0.965926 -0.000000 0.258818
vn -0.965926 -0.000000 0.258818
vn -0.965926 -0.000000 0.258818
vn -0.707108 0.000000 0.707106
vn -0.707108 0.000000 0.707106
vn -0.707108 0.000000 0.707106
vn -0.707108 0.000000 0.707106
vn -0.258819 0.000000 0.965926
vn -0.258819 0.000000 0.965926
vn -0.258819 0.000000 0.965926
vn -0.258819 0.000000 0.965926
vn 0.258818 0.000000 0.965926
vn 0.258818 0.000000 0.965926
vn 0.258818 0.000000 0.965926
vn 0.258818 0.000000 0.965926
vn 0.707108 0.000000 0.707106
vn 0.707108 0.000000 0.707106
vn 0.707108 0.000000 0.707106
vn 0.707108 0.000000 0.707106
vn 0.965927 0.000000 0.258816
vn 0.965927 0.000000 0.258816
vn 0.965927 0.000000 0.258816
vn 0.965927 0.000000 0.258816
vn 0.965927 0.000000 -0.258816
vn 0.965927 0.000000 -0.258816
vn 0.965927 0.000000 -0.258816
vn 0.965927 0.000000 -0.258816
vn 0.000000 -1.000000 0.000000
vn 0.000000 -1.000000 0.000000
vn 0.000000 -1.000000 0.000000
vn 0.000000 -1.000000 0.000000
vn 0.000000 -1.000000 0.000000
vn 0.000000 -1.000000 0.000000
vn 0.000000 -1.000000 0.000000
vn 0.000000 -1.000000 0.000000
vn 0.000000 -1.000000 0.000000
vn 0.000000 -1.000000 0.000000
vn 0.000000 -1.000000 0.000000
vn 0.000000 -1.000000 0.000000
vn 0.000000 -1.000000 0.000000
vn 0.643256 -0.353695 -0.679059
vn 0.637921 -0.363947 -0.678675
vn 0.468782 -0.612777 -0.636198
vn 0.468782 -0.612777 -0.636198
vn 0.230223 -0.156640 -0.960449
vn 0.230133 -0.156803 -0.960443
vn 0.176245 -0.251216 -0.951750
vn 0.176245 -0.251216 -0.951750
vn -0.225246 0.173801 -0.958675
vn -0.226771 0.171098 -0.958802
vn -0.181900 0.248389 -0.951428
vn -0.181900 0.248389 -0.951428
vn -0.575308 0.468887 -0.670199
vn -0.580083 0.462034 -0.670841
vn -0.443481 0.628551 -0.638943
vn -0.443481 0.628551 -0.638943
vn -0.748274 0.620384 -0.234965
vn -0.750933 0.617106 -0.235119
vn -0.559204 0.800020 -0.217394
vn -0.559204 0.800020 -0.217394
vn -0.750934 0.617106 0.235114
vn -0.748275 0.620385 0.234961
vn -0.559203 0.800021 0.217390
vn -0.559203 0.800021 0.217390
vn -0.580082 0.462032 0.670844
vn -0.575306 0.468885 0.670201
vn -0.443474 0.628554 0.638945
vn -0.443474 0.628554 0.638945
vn -0.226771 0.171098 0.958802
vn -0.225246 0.173801 0.958675
vn -0.181900 0.248389 0.951428
vn -0.181900 0.248389 0.951428
vn 0.230133 -0.156804 0.960443
vn 0.230223 -0.156640 0.960449
vn 0.176245 -0.251217 0.951750
vn 0.176245 -0.251217 0.951750
vn 0.637923 -0.363950 0.678671
vn 0.643258 -0.353700 0.679055
vn 0.468801 -0.612766 0.636194
vn 0.468801 -0.612766 0.636194
vn 0.888598 -0.391215 0.239467
vn 0.892600 -0.381961 0.239523
vn 0.630641 -0.746149 0.213431
vn 0.630641 -0.746149 0.213431
vn 0.892600 -0.381960 -0.239527
vn 0.888596 -0.391216 -0.239471
vn 0.630637 -0.746153 -0.213432
vn 0.630637 -0.746153 -0.213432
vn 0.726375 -0.155123 -0.669564
vn 0.726375 -0.155123 -0.669564
vn 0.274408 -0.073886 -0.958771
vn 0.274408 -0.073886 -0.958771
vn -0.267690 0.096434 -0.958667
vn -0.267690 0.096434 -0.958667
vn -0.695415 0.260341 -0.669791
vn -0.695415 0.260341 -0.669791
vn -0.907234 0.349004 -0.234783
vn -0.907234 0.349004 -0.234783
vn -0.907235 0.349003 0.234779
vn -0.907235 0.349003 0.234779
vn -0.695418 0.260333 0.669791
vn -0.695418 0.260333 0.669791
vn -0.267690 0.096434 0.958667
vn -0.267690 0.096434 0.958667
vn 0.274408 -0.073886 0.958771
vn 0.274408 -0.073886 0.958771
vn 0.726371 -0.155140 0.669565
vn 0.726371 -0.155140 0.669565
vn 0.961274 -0.146582 0.233379
vn 0.961274 -0.146582 0.233379
vn 0.961274 -0.146578 -0.233384
vn 0.961274 -0.146578 -0.233384
vn -0.707112 0.000000 -0.707102
vn -0.707112 0.000000 -0.707102
vn -0.707112 0.000000 -0.707102
vn -0.707112 0.000000 -0.707102
vn -0.258783 0.000000 -0.965935
vn -0.258783 0.000000 -0.965935
vn -0.258783 0.000000 -0.965935
vn -0.258783 0.000000 -0.965935
vn 0.258783 -0.000000 -0.965936
vn 0.258783 -0.000000 -0.965936
vn 0.258783 -0.000000 -0.965935
vn 0.258783 -0.000000 -0.965935
vn 0.707108 0.000000 -0.707106
vn 0.707108 0.000000 -0.707106
vn 0.707108 0.000000 -0.707106
vn 0.707108 0.000000 -0.707106
vn 0.965925 0.000000 -0.258824
vn 0.965925 0.000000 -0.258824
vn 0.965925 0.000000 -0.258824
vn 0.965925 0.000000 -0.258824
vn 0.965925 0.000000 0.258824
vn 0.965925 0.000000 0.258824
vn 0.965925 0.000000 0.258824
vn 0.965925 0.000000 0.258824
vn 0.707108 0.000000 0.707106
vn 0.707108 0.000000 0.707106
vn 0.707108 0.000000 0.707106
vn 0.707108 0.000000 0.707106
vn 0.258818 -0.000000 0.965926
vn 0.258818 -0.000000 0.965926
vn 0.258818 -0.000000 0.965926
vn 0.258818 -0.000000 0.965926
vn -0.258818 0.000000 0.965926
vn -0.258818 0.000000 0.965926
vn -0.258818 0.000000 0.965926
vn -0.258818 0.000000 0.965926
vn -0.707112 0.000000 0.707102
vn -0.707112 0.000000 0.707102
vn -0.707112 0.000000 0.707102
vn -0.707112 0.000000 0.707102
vn -0.965925 0.000000 0.258824
vn -0.965925 0.000000 0.258824
vn -0.965925 0.000000 0.258824
vn -0.965925 0.000000 0.258824
vn -0.965925 0.000000 -0.258824
vn -0.965925 0.000000 -0.258824
vn -0.965925 0.000000 -0.258824
vn -0.965925 0.000000 -0.258824
vn 0.000000 -1.000000 0.000000
vn 0.000000 -1.000000 0.000000
vn 0.000000 -1.000000 0.000000
vn 0.000000 -1.000000 0.000000
vn 0.000000 -1.000000 0.000000
vn 0.000000 -1.000000 0.000000
vn 0.000000 -1.000000 0.000000
vn 0.000000 -1.000000 0.000000
vn 0.000000 -1.000000 0.000000
vn 0.000000 -1.000000 0.000000
vn 0.000000 -1.000000 0.000000
vn 0.000000 -1.000000 0.000000
vn 0.000000 -1.000000 0.000000
vn -0.643257 -0.353698 -0.679056
vn -0.468785 -0.612779 -0.636193
vn -0.468785 -0.612779 -0.636193
vn -0.637922 -0.363949 -0.678673
vn -0.230222 -0.156639 -0.960449
vn -0.176244 -0.251215 -0.951751
vn -0.176244 -0.251215 -0.951751
vn -0.230132 -0.156803 -0.960444
vn 0.225245 0.173802 -0.958675
vn 0.181900 0.248390 -0.951428
vn 0.181900 0.248390 -0.951428
vn 0.226771 0.171098 -0.958802
vn 0.575305 0.468884 -0.670203
vn 0.443476 0.628547 -0.638950
vn 0.443476 0.628547 -0.638950
vn 0.580081 0.462031 -0.670846
vn 0.748276 0.620383 -0.234963
vn 0.559204 0.800020 -0.217391
vn 0.559204 0.800020 -0.217391
vn 0.750933 0.617106 -0.235116
vn 0.750934 0.617106 0.235112
vn 0.559204 0.800021 0.217387
vn 0.559204 0.800021 0.217387
vn 0.748277 0.620384 0.234958
vn 0.580080 0.462030 0.670847
vn 0.443470 0.628551 0.638951
vn 0.443470 0.628551 0.638951
vn 0.575304 0.468883 0.670205
vn 0.226771 0.171098 0.958802
vn 0.181900 0.248390 0.951428
vn 0.181900 0.248390 0.951428
vn 0.225246 0.173802 0.958675
vn -0.230132 -0.156804 0.960444
vn -0.176244 -0.251216 0.951750
vn -0.176244 -0.251216 0.951750
vn -0.230222 -0.156640 0.960449
vn -0.637924 -0.363951 0.678669
vn -0.468804 -0.612767 0.636192
vn -0.468804 -0.612767 0.636192
vn -0.643258 -0.353703 0.679053
vn -0.888597 -0.391218 0.239468
vn -0.630644 -0.746147 0.213432
vn -0.630644 -0.746147 0.213432
vn -0.892599 -0.381962 0.239524
vn -0.892599 -0.381961 -0.239527
vn -0.630640 -0.746150 -0.213435
vn -0.630640 -0.746150 -0.213435
vn -0.888595 -0.391219 -0.239471
vn 0.000000 -0.707107 -0.707107
vn 0.000000 -0.707107 -0.707107
vn 0.000000 -0.707107 -0.707107
vn 0.000000 -0.707107 -0.707107
vn 0.000000 -0.258783 -0.965935
vn 0.000000 -0.258783 -0.965935
vn 0.000000 -0.258783 -0.965935
vn 0.000000 -0.258783 -0.965935
vn 0.000000 0.258788 -0.965934
vn 0.000000 0.258788 -0.965934
vn 0.000000 0.258788 -0.965934
vn 0.000000 0.258788 -0.965934
vn 0.000000 0.707104 -0.707110
vn 0.000000 0.707104 -0.707110
vn 0.000000 0.707104 -0.707110
vn 0.000000 0.707104 -0.707110
vn 0.000000 0.965924 -0.258827
vn 0.000000 0.965924 -0.258827
vn 0.000000 0.965924 -0.258827
vn 0.000000 0.965924 -0.258827
vn 0.000000 0.965924 0.258827
vn 0.000000 0.965924 0.258827
vn 0.000000 0.965924 0.258827
vn 0.000000 0.965924 0.258827
vn 0.000000 0.707104 0.707110
vn 0.000000 0.707104 0.707110
vn 0.000000 0.707104 0.707110
vn 0.000000 0.707104 0.707110
vn 0.000000 0.258823 0.965925
vn 0.000000 0.258823 0.965925
vn 0.000000 0.258823 0.965925
vn 0.000000 0.258823 0.965925
vn 0.000000 -0.258818 0.965926
vn 0.000000 -0.258818 0.965926
vn 0.000000 -0.258818 0.965926
vn 0.000000 -0.258818 0.965926
vn 0.000000 -0.707107 0.707107
vn 0.000000 -0.707107 0.707107
vn 0.000000 -0.707107 0.707107
vn 0.000000 -0.707107 0.707107
vn 0.000000 -0.965924 0.258825
vn 0.000000 -0.965924 0.258825
vn 0.000000 -0.965924 0.258825
vn 0.000000 -0.965924 0.258825
vn 0.000000 -0.965924 -0.258825
vn 0.000000 -0.965924 -0.258825
vn 0.000000 -0.965924 -0.258825
vn 0.000000 -0.965924 -0.258825
vn -0.726375 -0.155127 -0.669563
vn -0.726375 -0.155127 -0.669563
vn -0.274407 -0.073887 -0.958771
vn -0.274407 -0.073887 -0.958771
vn 0.267689 0.096434 -0.958667
vn 0.267689 0.096434 -0.958667
vn 0.695415 0.260338 -0.669792
vn 0.695415 0.260338 -0.669792
vn 0.907235 0.349002 -0.234781
vn 0.907235 0.349002 -0.234781
vn 0.907236 0.349002 0.234777
vn 0.907236 0.349002 0.234777
vn 0.695418 0.260330 0.669793
vn 0.695418 0.260330 0.669793
vn 0.267690 0.096434 0.958667
vn 0.267690 0.096434 0.958667
vn -0.274407 -0.073887 0.958771
vn -0.274407 -0.073887 0.958771
vn -0.726370 -0.155144 0.669564
vn -0.726370 -0.155144 0.669564
vn -0.961273 -0.146588 0.233380
vn -0.961273 -0.146588 0.233380
vn -0.961273 -0.146585 -0.233383
vn -0.961273 -0.146585 -0.233383
s off
g pCube2
usemtl initialShadingGroup
f 1/1/1 2/2/2 4/4/3 3/3/4
f 3/3/5 4/4/6 6/6/7 5/5/8
f 5/5/9 6/6/10 8/8/11 7/7/12
f 7/7/13 8/8/14 2/10/15 1/9/16
f 2/2/17 8/11/18 6/12/19 4/4/20
f 7/13/21 1/1/22 3/3/23 5/14/24
f 9/15/25 10/16/26 22/17/27 21/18/28
f 10/16/29 11/19/30 23/20/31 22/17/32
f 11/19/33 12/21/34 24/22/35 23/20/36
f 12/21/37 13/23/38 25/24/39 24/22/40
f 13/23/41 14/25/42 26/26/43 25/24/44
f 14/25/45 15/27/46 27/28/47 26/26/48
f 15/27/49 16/29/50 28/30/51 27/28/52
f 16/29/53 17/31/54 29/32/55 28/30/56
f 17/31/57 18/33/58 30/34/59 29/32/60
f 18/33/61 19/35/62 31/36/63 30/34/64
f 19/35/65 20/37/66 32/38/67 31/36/68
f 20/37/69 9/39/70 21/40/71 32/38/72
s 1
f 10/41/73 9/42/74 33/43/75
f 11/44/76 10/41/73 33/43/75
f 12/45/77 11/44/76 33/43/75
f 13/46/78 12/45/77 33/43/75
f 14/47/79 13/46/78 33/43/75
f 15/48/80 14/47/79 33/43/75
f 16/49/81 15/48/80 33/43/75
f 17/50/82 16/49/81 33/43/75
f 18/51/83 17/50/82 33/43/75
f 19/52/84 18/51/83 33/43/75
f 20/53/85 19/52/84 33/43/75
f 9/42/74 20/53/85 33/43/75
s 2
f 46/54/86 47/55/87 35/56/88 34/57/89
s 3
f 47/55/90 48/58/91 36/59/92 35/56/93
s 4
f 48/58/94 49/60/95 37/61/96 36/59/97
s 5
f 49/60/98 50/62/99 38/63/100 37/61/101
s 6
f 50/62/102 51/64/103 39/65/104 38/63/105
s 7
f 51/64/106 52/66/107 40/67/108 39/65/109
s 8
f 52/66/110 53/68/111 41/69/112 40/67/113
s 9
f 53/68/114 54/70/115 42/71/116 41/69/117
s 10
f 54/70/118 55/72/119 43/73/120 42/71/121
s 11
f 55/72/122 56/74/123 44/75/124 43/73/125
s 12
f 56/74/126 57/76/127 45/77/128 44/75/129
s 13
f 57/76/130 46/54/131 34/57/132 45/77/133
s 2
f 21/78/134 22/79/135 47/55/87 46/54/86
s 3
f 22/79/136 23/80/137 48/58/91 47/55/90
s 4
f 23/80/138 24/81/139 49/60/95 48/58/94
s 5
f 24/81/140 25/82/141 50/62/99 49/60/98
s 6
f 25/82/142 26/83/143 51/64/103 50/62/102
s 7
f 26/83/144 27/84/145 52/66/107 51/64/106
s 8
f 27/84/146 28/85/147 53/68/111 52/66/110
s 9
f 28/85/148 29/86/149 54/70/115 53/68/114
s 10
f 29/86/150 30/87/151 55/72/119 54/70/118
s 11
f 30/87/152 31/88/153 56/74/123 55/72/122
s 12
f 31/88/154 32/89/155 57/76/127 56/74/126
s 13
f 32/89/156 21/78/157 46/54/131 57/76/130
s off
f 58/90/158 70/91/159 71/92/160 59/93/161
f 59/93/162 71/92/163 72/94/164 60/95/165
f 60/95/166 72/94/167 73/96/168 61/97/169
f 61/97/170 73/96/171 74/98/172 62/99/173
f 62/99/174 74/98/175 75/100/176 63/101/177
f 63/101/178 75/100/179 76/102/180 64/103/181
f 64/103/182 76/102/183 77/104/184 65/105/185
f 65/105/186 77/104/187 78/106/188 66/107/189
f 66/107/190 78/106/191 79/108/192 67/109/193
f 67/109/194 79/108/195 80/110/196 68/111/197
f 68/111/198 80/110/199 81/112/200 69/113/201
f 69/113/202 81/112/203 70/114/204 58/115/205
s 14
f 59/116/206 82/117/207 58/118/208
f 60/119/209 82/117/207 59/116/206
f 61/120/210 82/117/207 60/119/209
f 62/121/211 82/117/207 61/120/210
f 63/122/212 82/117/207 62/121/211
f 64/123/213 82/117/207 63/122/212
f 65/124/214 82/117/207 64/123/213
f 66/125/215 82/117/207 65/124/214
f 67/126/216 82/117/207 66/125/215
f 68/127/217 82/117/207 67/126/216
f 69/128/218 82/117/207 68/127/217
f 58/118/208 82/117/207 69/128/218
s 15
f 95/129/219 83/130/220 84/131/221 96/132/222
s 16
f 96/132/223 84/131/224 85/133/225 97/134/226
s 17
f 97/134/227 85/133/228 86/135/229 98/136/230
s 18
f 98/136/231 86/135/232 87/137/233 99/138/234
s 19
f 99/138/235 87/137/236 88/139/237 100/140/238
s 20
f 100/140/239 88/139/240 89/141/241 101/142/242
s 21
f 101/142/243 89/141/244 90/143/245 102/144/246
s 22
f 102/144/247 90/143/248 91/145/249 103/146/250
s 23
f 103/146/251 91/145/252 92/147/253 104/148/254
s 24
f 104/148/255 92/147/256 93/149/257 105/150/258
s 25
f 105/150/259 93/149/260 94/151/261 106/152/262
s 26
f 106/152/263 94/151/264 83/130/265 95/129/266
s off
f 35/56/267 84/131/268 83/130/269 34/57/270
f 36/59/271 85/133/272 84/131/273 35/56/274
f 37/61/275 86/135/276 85/133/277 36/59/278
f 38/63/279 87/137/280 86/135/281 37/61/282
f 39/65/283 88/139/284 87/137/285 38/63/286
f 40/67/287 89/141/288 88/139/289 39/65/290
f 41/69/291 90/143/292 89/141/293 40/67/294
f 42/71/295 91/145/296 90/143/297 41/69/298
f 43/73/299 92/147/300 91/145/301 42/71/302
f 44/75/303 93/149/304 92/147/305 43/73/306
f 45/77/307 94/151/308 93/149/309 44/75/310
f 34/57/311 83/130/312 94/151/313 45/77/314
s 15
f 70/153/315 95/129/219 96/132/222 71/154/316
s 16
f 71/154/317 96/132/223 97/134/226 72/155/318
s 17
f 72/155/319 97/134/227 98/136/230 73/156/320
s 18
f 73/156/321 98/136/231 99/138/234 74/157/322
s 19
f 74/157/323 99/138/235 100/140/238 75/158/324
s 20
f 75/158/325 100/140/239 101/142/242 76/159/326
s 21
f 76/159/327 101/142/243 102/144/246 77/160/328
s 22
f 77/160/329 102/144/247 103/146/250 78/161/330
s 23
f 78/161/331 103/146/251 104/148/254 79/162/332
s 24
f 79/162/333 104/148/255 105/150/258 80/163/334
s 25
f 80/163/335 105/150/259 106/152/262 81/164/336
s 26
f 81/164/337 106/152/263 95/129/266 70/153/338
